# xmcd CD database file
#
# Track frame offsets:
#	150
#	13480
#	35251
#	51885
#	68116
#	85631
#	102290
#	120873
#	137398
#	156430
#	170032
#	187184
#	206111
#	227756
#	244261
#	260224
#	276397
#
# Disc length: 3950 seconds
#
# Revision: 0
# Processed by: cddbd v1.5.1PL0 Copyright (c) Steve Scherf et al.
# Submitted via: CDex 1.51
#
DISCID=fa0f6c11
DTITLE=Various Artist - Top Hits USA RJ34
DYEAR=2005
DGENRE=Jazz
TTITLE0=Down To The Bone - Tiburon (Radio Edit #1)
TTITLE1=Chieli Minucci - The Juice
TTITLE2=Kim Waters - Steppin' Out
TTITLE3=Soul Ballet - She Rides
TTITLE4=Boney James - 2:01 AM (Fade)
TTITLE5=Marc Antoine - Bella Via (Radio Edit)
TTITLE6=Walter Beasley - Coolness
TTITLE7=Kevin Toney - Quiet Conversation
TTITLE8=Marion Meadows - Suede
TTITLE9=Paul Hardcastle - Serene
TTITLE10=Euge Groove - Get Em Goin' (Radio Edit #1)
TTITLE11=Pieces Of A Dream - Lunar Lullaby
TTITLE12=Nelson Rangell - Don't You Worry 'Bout A Thing
TTITLE13=Jeffrey Osborne - Close The Door (Smooth Jazz Edit)
TTITLE14=Gerald Albright and Kevin Toney - Hey Young World (Radio Edit w Vibes)
TTITLE15=Lin Rountree - Into The Night (Radio Edit Version)
TTITLE16=Richard Elliot - People Make The World Go Round
EXTD=YEAR: 2005
EXTT0=
EXTT1=
EXTT2=
EXTT3=
EXTT4=
EXTT5=
EXTT6=
EXTT7=
EXTT8=
EXTT9=
EXTT10=
EXTT11=
EXTT12=
EXTT13=
EXTT14=
EXTT15=
EXTT16=
PLAYORDER=
